<?xml version="1.0" encoding="UTF-8"?>
<svg id="_レイヤー_2" data-name="レイヤー 2" xmlns="http://www.w3.org/2000/svg" viewBox="0 0 142.04 221.29">
  <defs>
    <style>
      .cls-1 {
        fill: #187fc4;
      }

      .cls-2 {
        fill: #dcdddd;
      }

      .cls-3 {
        fill: #040000;
      }

      .cls-4 {
        fill: #474a53;
      }
    </style>
  </defs>
  <g id="_ロゴ" data-name="ロゴ">
    <g>
      <g>
        <path class="cls-1" d="M49.26,190.17c-.1-.38-.32-.72-.6-.94-.38-.28-.92-.38-1.32-.38-.78,0-1.26.28-1.52.52-.32.28-.56.72-.56,1.2s.2.76.48,1.02c.42.38.8.48,1.3.7l1.08.48c.86.38,1.38.84,1.68,1.22.54.66.7,1.36.7,2.17,0,1.54-.54,2.57-1.22,3.29-1.08,1.12-2.43,1.34-3.47,1.34s-1.93-.22-2.67-.94c-.66-.64-1.2-1.71-1.24-2.99l2.05-.44c-.02.52.1,1.32.46,1.79.32.42.84.7,1.7.7.72,0,1.22-.24,1.58-.56.52-.46.76-1.28.76-1.95,0-.54-.2-.92-.52-1.26-.38-.4-.92-.64-1.36-.84l-1.02-.46c-.48-.22-1.12-.56-1.58-1.06-.42-.48-.74-1.16-.74-1.95,0-.18,0-1.46,1.06-2.57.72-.76,1.76-1.28,3.17-1.28.66,0,1.52.1,2.29.62.72.48,1.08,1.1,1.26,1.62l-1.76.96Z"/>
        <path class="cls-3" d="M56.58,192.48h5.7l.64-5.27h2.03l-1.64,13.3h-2.03l.76-6.12h-5.7l-.76,6.12h-2.03l1.64-13.3h2.03l-.64,5.27Z"/>
        <path class="cls-3" d="M71.3,187.22l-1.64,13.3h-2.03l1.64-13.3h2.03Z"/>
        <path class="cls-3" d="M80.82,190.17c-.1-.38-.32-.72-.6-.94-.38-.28-.92-.38-1.32-.38-.78,0-1.26.28-1.52.52-.32.28-.56.72-.56,1.2s.2.76.48,1.02c.42.38.8.48,1.3.7l1.08.48c.86.38,1.38.84,1.68,1.22.54.66.7,1.36.7,2.17,0,1.54-.54,2.57-1.22,3.29-1.08,1.12-2.43,1.34-3.47,1.34s-1.93-.22-2.67-.94c-.66-.64-1.2-1.71-1.24-2.99l2.05-.44c-.02.52.1,1.32.46,1.79.32.42.84.7,1.7.7.72,0,1.22-.24,1.58-.56.52-.46.76-1.28.76-1.95,0-.54-.2-.92-.52-1.26-.38-.4-.92-.64-1.36-.84l-1.02-.46c-.48-.22-1.12-.56-1.58-1.06-.42-.48-.74-1.16-.74-1.95,0-.18,0-1.46,1.06-2.57.72-.76,1.76-1.28,3.17-1.28.66,0,1.52.1,2.29.62.72.48,1.08,1.1,1.26,1.62l-1.75.96Z"/>
        <path class="cls-3" d="M93.84,189.13h-5.3l-.4,3.37h5.15l-.24,1.91h-5.15l-.52,4.19h5.3l-.24,1.91h-7.34l1.64-13.3h7.34l-.24,1.91Z"/>
        <path class="cls-3" d="M99.76,187.22l-1.64,13.3h-2.03l1.64-13.3h2.03Z"/>
        <path class="cls-3" d="M5.09,209.08l-1.4,11.39H1.66l1.4-11.39H0l.24-1.91h8.14l-.24,1.91h-3.05Z"/>
        <path class="cls-3" d="M17.78,209.08h-5.3l-.4,3.37h5.15l-.24,1.91h-5.15l-.52,4.19h5.3l-.24,1.91h-7.34l1.64-13.3h7.34l-.24,1.91Z"/>
        <path class="cls-3" d="M30.52,210.28c-1.26-1.26-2.77-1.48-3.65-1.48-1.4,0-2.67.46-3.61,1.36-.98.94-1.68,2.51-1.68,4.31,0,1.44.52,2.45,1.16,3.13.76.82,1.77,1.26,3.13,1.26,1.77,0,3.07-.94,3.77-1.54l-.28,2.41c-1.62.88-2.73,1-3.67,1-1.6,0-3.05-.34-4.37-1.66-1.16-1.16-1.77-2.63-1.77-4.61,0-2.45.92-4.25,2.19-5.5,1.46-1.42,3.23-2.03,5.27-2.03,1.22,0,2.37.26,3.79.96l-.28,2.39Z"/>
        <path class="cls-3" d="M35.41,212.43h5.7l.64-5.27h2.03l-1.64,13.3h-2.03l.76-6.12h-5.7l-.76,6.12h-2.03l1.64-13.3h2.03l-.64,5.27Z"/>
        <path class="cls-3" d="M45.97,220.47l1.74-14.2,8.42,10.11,1.14-9.21h2.03l-1.73,14.12-8.42-10.11-1.14,9.29h-2.03Z"/>
        <path class="cls-3" d="M73.69,208.66c1.52,1.5,1.72,3.37,1.72,4.51,0,2.73-1.1,4.49-2.09,5.5-1.75,1.77-3.81,2.05-5.48,2.05-1.81,0-3.33-.4-4.61-1.72-1.06-1.08-1.77-2.67-1.77-4.53,0-2.11.84-4.15,2.17-5.46,1.32-1.32,3.31-2.09,5.58-2.09s3.71.96,4.49,1.73ZM71.76,217.42c1.02-1,1.62-2.57,1.62-4.13s-.64-2.55-1.2-3.13c-.74-.76-1.89-1.36-3.37-1.36-1.28,0-2.57.38-3.69,1.48-.92.9-1.66,2.27-1.66,4.07,0,1.66.72,2.69,1.24,3.23.94,1,2.03,1.28,3.15,1.28,1.75,0,3.03-.56,3.91-1.44Z"/>
        <path class="cls-3" d="M81.29,207.17l-1.4,11.39h3.91l-.24,1.91h-5.94l1.64-13.3h2.03Z"/>
        <path class="cls-3" d="M97.76,208.66c1.52,1.5,1.72,3.37,1.72,4.51,0,2.73-1.1,4.49-2.09,5.5-1.75,1.77-3.81,2.05-5.48,2.05-1.81,0-3.33-.4-4.61-1.72-1.06-1.08-1.77-2.67-1.77-4.53,0-2.11.84-4.15,2.17-5.46,1.32-1.32,3.31-2.09,5.58-2.09s3.71.96,4.49,1.73ZM95.83,217.42c1.02-1,1.62-2.57,1.62-4.13s-.64-2.55-1.2-3.13c-.74-.76-1.89-1.36-3.37-1.36-1.28,0-2.57.38-3.69,1.48-.92.9-1.66,2.27-1.66,4.07,0,1.66.72,2.69,1.24,3.23.94,1,2.03,1.28,3.15,1.28,1.75,0,3.03-.56,3.91-1.44Z"/>
        <path class="cls-3" d="M109.46,213.55h5.48c-.1,1.36-.56,3.83-2.19,5.44-1.44,1.42-3.17,1.73-4.75,1.73s-3.09-.38-4.43-1.77c-.8-.82-1.73-2.23-1.73-4.43s.86-4.13,2.25-5.5c1.38-1.36,3.19-2.09,5.44-2.09,1.2,0,2.19.2,3.23.82.82.5,1.56,1.2,2.09,1.93l-1.64,1.22c-.38-.52-.94-1.08-1.46-1.42-.76-.48-1.58-.68-2.43-.68-1.77,0-3.01.7-3.81,1.5-1.14,1.12-1.64,2.63-1.64,4.03,0,1.32.52,2.57,1.26,3.33.5.5,1.44,1.2,3.09,1.2,1.1,0,2.09-.28,2.95-1.06.44-.4,1.08-1.14,1.34-2.37h-3.31l.24-1.88Z"/>
        <path class="cls-3" d="M120.75,207.17l-1.64,13.3h-2.03l1.64-13.3h2.03Z"/>
        <path class="cls-3" d="M131.63,209.08h-5.3l-.4,3.37h5.15l-.24,1.91h-5.15l-.52,4.19h5.3l-.24,1.91h-7.34l1.64-13.3h7.34l-.24,1.91Z"/>
        <path class="cls-3" d="M140.29,210.12c-.1-.38-.32-.72-.6-.94-.38-.28-.92-.38-1.32-.38-.78,0-1.26.28-1.52.52-.32.28-.56.72-.56,1.2s.2.76.48,1.02c.42.38.8.48,1.3.7l1.08.48c.86.38,1.38.84,1.68,1.22.54.66.7,1.36.7,2.17,0,1.54-.54,2.57-1.22,3.29-1.08,1.12-2.43,1.34-3.47,1.34s-1.93-.22-2.67-.94c-.66-.64-1.2-1.71-1.24-2.99l2.05-.44c-.02.52.1,1.32.46,1.79.32.42.84.7,1.7.7.72,0,1.22-.24,1.58-.56.52-.46.76-1.28.76-1.95,0-.54-.2-.92-.52-1.26-.38-.4-.92-.64-1.36-.84l-1.02-.46c-.48-.22-1.12-.56-1.58-1.06-.42-.48-.74-1.16-.74-1.95,0-.18,0-1.46,1.06-2.57.72-.76,1.76-1.28,3.17-1.28.66,0,1.52.1,2.29.62.72.48,1.08,1.1,1.26,1.62l-1.75.96Z"/>
      </g>
      <g>
        <g>
          <g>
            <path class="cls-2" d="M98.06,12.24c0,.24-.19.43-.43.43h-54.33c-.24,0-.43-.19-.43-.43v-7.92c0-2.39,1.94-4.33,4.33-4.33h46.55c2.39,0,4.33,1.94,4.33,4.33v7.92Z"/>
            <path class="cls-2" d="M106.34,20.44c-4.86-2.55-10.33-3.9-15.83-3.9h-40.75c-9.12,0-17.71,3.57-24.2,10.07-6.49,6.49-10.07,15.09-10.07,24.2v33.61c0,.2.13.37.32.42.04.01.07.01.11.01.15,0,.3-.08.37-.22,5.65-9.76,12.8-19.11,21.26-27.79,21.42-21.97,47.59-35.59,68.35-35.59.07,0,.15,0,.22,0h0c.2,0,.37-.14.42-.33.05-.19-.04-.39-.22-.49Z"/>
          </g>
          <g>
            <path class="cls-2" d="M42.87,164.96c0-.24.19-.43.43-.43h54.33c.24,0,.43.19.43.43v7.92c0,2.39-1.94,4.33-4.33,4.33h-46.55c-2.39,0-4.33-1.94-4.33-4.33v-7.92Z"/>
            <path class="cls-2" d="M124.63,92.36c-.19-.05-.39.03-.49.2-5.65,9.76-12.8,19.11-21.26,27.79-21.42,21.97-47.59,35.59-68.35,35.59-.08,0-.15,0-.23,0-.19,0-.37.13-.42.33-.05.19.04.39.22.49,4.86,2.55,10.33,3.9,15.83,3.9h40.75c9.12,0,17.71-3.58,24.2-10.07s10.07-15.09,10.07-24.2v-33.61c0-.2-.13-.37-.32-.42Z"/>
          </g>
        </g>
        <path class="cls-1" d="M41.85,85.26c-.37-.17-.83-.14-1.04.03-.2.16-.11.87-.04,1.22.05.27,1.28,7.12,2.74,10.77.07.29-.24.51-.49.35-3.41-1.46-8.87-5.8-9.14-5.99s-.96-.5-1.32-.28c-.37.23-.25,1.29-.25,1.29,2.33,25.37,12.53,30.29,19.4,33.64,6.84,3.33,8.9,2.08,18.27,10.52.22.2.49.32.78.32.13,0,.27-.02.4-.07.41-.15.68-.53.71-.96,1.78-27.83-7.33-40.23-30.02-50.84Z"/>
        <path class="cls-4" d="M50.1,73.04c-8.93-17.18,22.32-43.61,25.86-42.33,2.94,1.07-9.79,6.29-3.75,22.85,5.82,15.96,28.57,27.82,33.69,42.12,6.77,18.91-27.47,44.96-31.21,43.91-3.13-.88,13.99-16.12,5.59-32.22-8.55-16.4-23.55-21.59-30.18-34.33Z"/>
      </g>
    </g>
  </g>
</svg>