<?xml version="1.0" encoding="UTF-8"?>
<svg id="_レイヤー_2" data-name="レイヤー 2" xmlns="http://www.w3.org/2000/svg" viewBox="0 0 425.4 113.31">
  <defs>
    <style>
      .cls-1 {
        fill: #187fc4;
      }

      .cls-2 {
        fill: #dcdddd;
      }

      .cls-3 {
        fill: #040000;
      }

      .cls-4 {
        fill: #474a53;
      }
    </style>
  </defs>
  <g id="_ロゴ" data-name="ロゴ">
    <g>
      <g>
        <path class="cls-1" d="M107.46,20.81c-.24-.91-.76-1.72-1.43-2.24-.91-.67-2.19-.91-3.15-.91-1.86,0-3,.67-3.62,1.24-.76.67-1.33,1.72-1.33,2.86s.48,1.81,1.14,2.43c1,.91,1.91,1.14,3.1,1.67l2.57,1.14c2.05.91,3.29,2,4,2.91,1.29,1.57,1.67,3.24,1.67,5.19,0,3.67-1.29,6.15-2.91,7.86-2.57,2.67-5.81,3.19-8.29,3.19s-4.62-.52-6.39-2.24c-1.57-1.52-2.86-4.1-2.95-7.15l4.91-1.05c-.05,1.24.24,3.15,1.1,4.29.76,1,2,1.67,4.05,1.67,1.72,0,2.91-.57,3.76-1.33,1.24-1.1,1.81-3.05,1.81-4.67,0-1.29-.48-2.19-1.24-3-.91-.95-2.19-1.52-3.24-2l-2.43-1.1c-1.14-.52-2.67-1.33-3.76-2.53-1-1.14-1.76-2.76-1.76-4.67,0-.43,0-3.48,2.53-6.15,1.72-1.81,4.19-3.05,7.58-3.05,1.57,0,3.62.24,5.48,1.48,1.72,1.14,2.57,2.62,3,3.86l-4.19,2.29Z"/>
        <path class="cls-3" d="M124.52,26.34h13.63l1.52-12.58h4.86l-3.91,31.78h-4.86l1.81-14.63h-13.63l-1.81,14.63h-4.86l3.91-31.78h4.86l-1.52,12.58Z"/>
        <path class="cls-3" d="M159.29,13.76l-3.91,31.78h-4.86l3.91-31.78h4.86Z"/>
        <path class="cls-3" d="M181.63,20.81c-.24-.91-.76-1.72-1.43-2.24-.91-.67-2.19-.91-3.15-.91-1.86,0-3,.67-3.62,1.24-.76.67-1.33,1.72-1.33,2.86s.48,1.81,1.14,2.43c1,.91,1.91,1.14,3.1,1.67l2.57,1.14c2.05.91,3.29,2,4,2.91,1.29,1.57,1.67,3.24,1.67,5.19,0,3.67-1.29,6.15-2.91,7.86-2.57,2.67-5.81,3.19-8.29,3.19s-4.62-.52-6.39-2.24c-1.57-1.52-2.86-4.1-2.96-7.15l4.91-1.05c-.05,1.24.24,3.15,1.1,4.29.76,1,2,1.67,4.05,1.67,1.71,0,2.91-.57,3.76-1.33,1.24-1.1,1.81-3.05,1.81-4.67,0-1.29-.48-2.19-1.24-3-.91-.95-2.19-1.52-3.24-2l-2.43-1.1c-1.14-.52-2.67-1.33-3.76-2.53-1-1.14-1.76-2.76-1.76-4.67,0-.43,0-3.48,2.53-6.15,1.72-1.81,4.19-3.05,7.58-3.05,1.57,0,3.62.24,5.48,1.48,1.72,1.14,2.57,2.62,3,3.86l-4.19,2.29Z"/>
        <path class="cls-3" d="M212.32,18.33h-12.68l-.95,8.05h12.29l-.57,4.57h-12.29l-1.24,10.01h12.68l-.57,4.57h-17.54l3.91-31.78h17.54l-.57,4.57Z"/>
        <path class="cls-3" d="M226.05,13.76l-3.91,31.78h-4.86l3.91-31.78h4.86Z"/>
        <path class="cls-3" d="M102.84,65.98l-3.34,27.21h-4.86l3.34-27.21h-7.29l.57-4.57h19.44l-.57,4.57h-7.29Z"/>
        <path class="cls-3" d="M132.76,65.98h-12.68l-.95,8.05h12.29l-.57,4.57h-12.29l-1.24,10.01h12.68l-.57,4.57h-17.54l3.91-31.78h17.54l-.57,4.57Z"/>
        <path class="cls-3" d="M162.77,68.84c-3-3-6.62-3.53-8.72-3.53-3.34,0-6.39,1.1-8.62,3.24-2.33,2.24-4,6-4,10.29,0,3.43,1.24,5.86,2.76,7.48,1.81,1.95,4.24,3,7.48,3,4.24,0,7.34-2.24,9.01-3.67l-.67,5.77c-3.86,2.1-6.53,2.38-8.77,2.38-3.81,0-7.29-.81-10.44-3.96-2.76-2.76-4.24-6.29-4.24-11.01,0-5.86,2.19-10.15,5.24-13.15,3.48-3.38,7.72-4.86,12.58-4.86,2.91,0,5.67.62,9.05,2.29l-.67,5.72Z"/>
        <path class="cls-3" d="M174.05,73.99h13.63l1.52-12.58h4.86l-3.91,31.78h-4.86l1.81-14.63h-13.63l-1.81,14.63h-4.86l3.91-31.78h4.86l-1.52,12.58Z"/>
        <path class="cls-3" d="M198.86,93.19l4.15-33.93,20.11,24.16,2.72-22.02h4.86l-4.15,33.74-20.11-24.16-2.72,22.21h-4.86Z"/>
        <path class="cls-3" d="M264.68,64.98c3.62,3.57,4.1,8.05,4.1,10.77,0,6.53-2.62,10.72-5,13.15-4.19,4.24-9.1,4.91-13.1,4.91-4.34,0-7.96-.95-11.01-4.1-2.53-2.57-4.24-6.39-4.24-10.82,0-5.05,2-9.91,5.19-13.06,3.14-3.15,7.91-5,13.34-5s8.86,2.29,10.72,4.15ZM260.06,85.9c2.43-2.38,3.86-6.15,3.86-9.86s-1.52-6.1-2.86-7.48c-1.76-1.81-4.53-3.24-8.05-3.24-3.05,0-6.15.91-8.82,3.53-2.19,2.14-3.96,5.43-3.96,9.72,0,3.96,1.72,6.43,2.96,7.72,2.24,2.38,4.86,3.05,7.53,3.05,4.19,0,7.24-1.33,9.34-3.43Z"/>
        <path class="cls-3" d="M282.43,61.41l-3.33,27.21h9.34l-.57,4.57h-14.2l3.91-31.78h4.86Z"/>
        <path class="cls-3" d="M321.28,64.98c3.62,3.57,4.1,8.05,4.1,10.77,0,6.53-2.62,10.72-5,13.15-4.19,4.24-9.1,4.91-13.1,4.91-4.34,0-7.96-.95-11.01-4.1-2.53-2.57-4.24-6.39-4.24-10.82,0-5.05,2-9.91,5.19-13.06,3.14-3.15,7.91-5,13.34-5s8.86,2.29,10.72,4.15ZM316.66,85.9c2.43-2.38,3.86-6.15,3.86-9.86s-1.52-6.1-2.86-7.48c-1.76-1.81-4.53-3.24-8.05-3.24-3.05,0-6.15.91-8.82,3.53-2.19,2.14-3.96,5.43-3.96,9.72,0,3.96,1.72,6.43,2.96,7.72,2.24,2.38,4.86,3.05,7.53,3.05,4.19,0,7.24-1.33,9.34-3.43Z"/>
        <path class="cls-3" d="M348.81,76.66h13.1c-.24,3.24-1.33,9.15-5.24,13.01-3.43,3.38-7.58,4.15-11.34,4.15s-7.39-.91-10.58-4.24c-1.91-1.95-4.15-5.34-4.15-10.58s2.05-9.86,5.38-13.15c3.29-3.24,7.62-5,13.01-5,2.86,0,5.24.48,7.72,1.95,1.95,1.19,3.72,2.86,5,4.62l-3.91,2.91c-.91-1.24-2.24-2.57-3.48-3.38-1.81-1.14-3.76-1.62-5.81-1.62-4.24,0-7.2,1.67-9.1,3.57-2.72,2.67-3.91,6.29-3.91,9.63,0,3.15,1.24,6.15,3,7.96,1.19,1.19,3.43,2.86,7.39,2.86,2.62,0,5-.67,7.05-2.53,1.05-.95,2.57-2.72,3.19-5.67h-7.91l.57-4.48Z"/>
        <path class="cls-3" d="M375.36,61.41l-3.91,31.78h-4.86l3.91-31.78h4.86Z"/>
        <path class="cls-3" d="M400.96,65.98h-12.68l-.95,8.05h12.29l-.57,4.57h-12.29l-1.24,10.01h12.68l-.57,4.57h-17.54l3.91-31.78h17.54l-.57,4.57Z"/>
        <path class="cls-3" d="M421.21,68.46c-.24-.91-.76-1.72-1.43-2.24-.91-.67-2.19-.91-3.14-.91-1.86,0-3,.67-3.62,1.24-.76.67-1.33,1.72-1.33,2.86s.48,1.81,1.14,2.43c1,.91,1.91,1.14,3.1,1.67l2.57,1.14c2.05.91,3.29,2,4,2.91,1.29,1.57,1.67,3.24,1.67,5.19,0,3.67-1.29,6.15-2.91,7.86-2.57,2.67-5.81,3.19-8.29,3.19s-4.62-.52-6.38-2.24c-1.57-1.53-2.86-4.1-2.96-7.15l4.91-1.05c-.05,1.24.24,3.15,1.1,4.29.76,1,2,1.67,4.05,1.67,1.72,0,2.91-.57,3.76-1.33,1.24-1.1,1.81-3.05,1.81-4.67,0-1.29-.48-2.19-1.24-3-.91-.95-2.19-1.52-3.24-2l-2.43-1.1c-1.14-.52-2.67-1.33-3.76-2.53-1-1.14-1.76-2.76-1.76-4.67,0-.43,0-3.48,2.53-6.15,1.72-1.81,4.19-3.05,7.58-3.05,1.57,0,3.62.24,5.48,1.48,1.72,1.14,2.57,2.62,3,3.86l-4.19,2.29Z"/>
      </g>
      <g>
        <g>
          <g>
            <path class="cls-2" d="M52.8,7.83c0,.15-.12.28-.28.28H17.78c-.15,0-.28-.12-.28-.28V2.77c0-1.53,1.24-2.77,2.77-2.77h29.77c1.53,0,2.77,1.24,2.77,2.77v5.06Z"/>
            <path class="cls-2" d="M58.1,13.07c-3.11-1.63-6.61-2.49-10.12-2.49h-26.06c-5.83,0-11.33,2.29-15.48,6.44C2.29,21.16,0,26.66,0,32.49v21.49c0,.13.08.23.2.27.02,0,.05,0,.07,0,.1,0,.19-.05.24-.14,3.61-6.24,8.18-12.22,13.59-17.77,13.7-14.05,30.43-22.76,43.71-22.76.05,0,.1,0,.14,0h0c.13,0,.24-.09.27-.21.03-.12-.03-.25-.14-.31Z"/>
          </g>
          <g>
            <path class="cls-2" d="M17.51,105.49c0-.15.12-.28.28-.28h34.75c.15,0,.28.12.28.28v5.06c0,1.53-1.24,2.77-2.77,2.77h-29.77c-1.53,0-2.77-1.24-2.77-2.77v-5.06Z"/>
            <path class="cls-2" d="M69.8,59.06c-.12-.03-.25.02-.31.13-3.61,6.24-8.18,12.22-13.59,17.77-13.7,14.05-30.43,22.76-43.71,22.76-.05,0-.1,0-.14,0-.12,0-.24.09-.27.21-.03.12.03.25.14.31,3.11,1.63,6.61,2.49,10.12,2.49h26.06c5.83,0,11.33-2.29,15.48-6.44s6.44-9.65,6.44-15.48v-21.49c0-.13-.08-.23-.2-.27Z"/>
          </g>
        </g>
        <path class="cls-1" d="M16.86,54.52c-.23-.11-.53-.09-.66.02-.12.1-.07.56-.03.78.03.17.82,4.56,1.75,6.88.05.18-.16.33-.31.22-2.18-.94-5.67-3.71-5.84-3.83s-.61-.32-.85-.18c-.23.14-.16.83-.16.83,1.49,16.23,8.01,19.37,12.4,21.51s5.69,1.33,11.69,6.73c.14.13.31.2.5.2.08,0,.17-.02.25-.05.26-.1.44-.34.45-.62,1.14-17.8-4.69-25.72-19.2-32.51Z"/>
        <path class="cls-4" d="M22.13,46.71c-5.71-10.99,14.27-27.89,16.54-27.07,1.88.68-6.26,4.02-2.4,14.61,3.72,10.2,18.27,17.79,21.55,26.93,4.33,12.09-17.57,28.75-19.96,28.08-2-.56,8.95-10.31,3.58-20.6-5.47-10.48-15.06-13.81-19.3-21.95Z"/>
      </g>
    </g>
  </g>
</svg>